<svg xmlns="http://www.w3.org/2000/svg" width="135" height="150" viewBox="0 0 135 150">
  <path d="M -0 74.958 L 0 150 19.500 150 L 39 150 39 127.473 L 39 104.947 53.750 105.223 L 68.500 105.500 80.527 127.500 L 92.554 149.500 114.027 149.500 L 135.500 149.500 135.513 74.500 L 135.526 -0.500 135.013 73.907 L 134.500 148.314 121.782 125.907 L 109.065 103.500 113.782 101.408 C 116.377 100.258, 119.971 98.073, 121.770 96.553 C 123.568 95.033, 126.114 91.924, 127.428 89.645 C 128.741 87.365, 130.571 82.040, 131.495 77.811 C 132.858 71.569, 133.101 66.113, 132.790 48.811 C 132.439 29.359, 132.202 26.985, 130.073 21.595 C 126.894 13.547, 119.421 6.016, 111.500 2.877 L 105.500 0.500 52.750 0.208 L -0 -0.083 -0 74.958 M 0.475 75.500 C 0.475 116.750, 0.598 133.771, 0.750 113.324 C 0.901 92.877, 0.901 59.127, 0.750 38.324 C 0.599 17.521, 0.475 34.250, 0.475 75.500 M 39 52.500 L 39 75.131 62.750 74.815 C 83.724 74.537, 86.813 74.288, 89.175 72.684 C 90.647 71.685, 92.334 69.481, 92.925 67.785 C 93.516 66.089, 94 59.099, 94 52.252 C 94 43.258, 93.584 38.925, 92.500 36.642 C 89.692 30.724, 88.802 30.531, 62.750 30.185 L 39 29.869 39 52.500" fill="currentColor" fill-rule="evenodd"/>
</svg>
