<?xml version="1.0" encoding="UTF-8" standalone="no"?>
<!DOCTYPE svg PUBLIC "-//W3C//DTD SVG 1.1//EN" "http://www.w3.org/Graphics/SVG/1.1/DTD/svg11.dtd">
<svg width="100%" height="100%" viewBox="0 0 687 763" version="1.1" xmlns="http://www.w3.org/2000/svg" xmlns:xlink="http://www.w3.org/1999/xlink" xml:space="preserve" xmlns:serif="http://www.serif.com/" style="fill-rule:evenodd;clip-rule:evenodd;stroke-linejoin:round;stroke-miterlimit:2;">
  <path d="M550.375,523.125l135.875,239.375l-212.042,0.25l-125.125,-228.708l-152.875,-0.083l0,228.667l-196.208,0l0,-762.625l465.542,0.125c37.125,0 70.833,6.25 104.417,17.25c75.458,29.083 104.917,104.042 105.25,183.208l0.583,132.958c-2.125,33.458 -6.833,65.625 -17,96.625c-18.667,47.708 -53.417,79.458 -108.417,92.958Zm-70.75,-199.833l-0.125,-114.208c-1.542,-31.375 -21.625,-52.917 -52.833,-56.5l-230.5,-0.083l0.083,229.125l230.375,-0.208c31.083,-3.625 51.667,-24.708 52.958,-58.083l0.042,0l-0,-0.042Z" style="fill:#cfff0e;fill-rule:nonzero;"/>
</svg>
